<svg width="22" height="22" viewBox="0 0 22 22" fill="none" xmlns="http://www.w3.org/2000/svg">
<path d="M16.4165 4.50002H20.8332C21.3855 4.50002 21.8332 4.94774 21.8332 5.50002V5.66669C21.8332 6.21897 21.3855 6.66669 20.8332 6.66669H19.6665V20.75C19.6665 21.0373 19.5524 21.3129 19.3492 21.5161C19.146 21.7192 18.8705 21.8334 18.5832 21.8334H3.4165C3.12919 21.8334 2.85364 21.7192 2.65047 21.5161C2.44731 21.3129 2.33317 21.0373 2.33317 20.75V6.66669H1.1665C0.614219 6.66669 0.166504 6.21897 0.166504 5.66669V5.50002C0.166504 4.94774 0.614219 4.50002 1.1665 4.50002H5.58317V1.25002C5.58317 0.962703 5.69731 0.687152 5.90047 0.483988C6.10364 0.280824 6.37919 0.166687 6.6665 0.166687H15.3332C15.6205 0.166687 15.896 0.280824 16.0992 0.483988C16.3024 0.687152 16.4165 0.962703 16.4165 1.25002V4.50002ZM17.4998 6.66669H4.49984V19.6667H17.4998V6.66669ZM7.74984 10.9167C7.74984 10.3644 8.19755 9.91669 8.74984 9.91669H8.9165C9.46879 9.91669 9.9165 10.3644 9.9165 10.9167V15.4167C9.9165 15.969 9.46879 16.4167 8.9165 16.4167H8.74984C8.19755 16.4167 7.74984 15.969 7.74984 15.4167V10.9167ZM12.0832 10.9167C12.0832 10.3644 12.5309 9.91669 13.0832 9.91669H13.2498C13.8021 9.91669 14.2498 10.3644 14.2498 10.9167V15.4167C14.2498 15.969 13.8021 16.4167 13.2498 16.4167H13.0832C12.5309 16.4167 12.0832 15.969 12.0832 15.4167V10.9167ZM7.74984 2.33335V4.50002H14.2498V2.33335H7.74984Z" fill="#C91E1E"/>
</svg>
