<svg width="24" height="24" viewBox="0 0 24 24" fill="none" xmlns="http://www.w3.org/2000/svg">
<g clip-path="url(#clip0_501_2042)">
<path d="M14.9999 19.0007C14.4476 19.0003 14.0002 18.5514 14.0006 17.9991C14.001 17.4471 14.4486 16.9989 15.0006 16.9989H16.001C16.6595 17.0018 17.312 16.8746 17.9212 16.6246C18.5303 16.3746 19.0841 16.0068 19.5507 15.5422C20.0173 15.0776 20.3876 14.5255 20.6402 13.9174C20.8929 13.3094 21.0229 12.6574 21.0229 11.9989C21.0229 11.3405 20.8929 10.6885 20.6402 10.0805C20.3876 9.47242 20.0173 8.92025 19.5507 8.45568C19.0841 7.9911 18.5303 7.62327 17.9212 7.37329C17.312 7.12331 16.6595 6.99611 16.001 6.99899L15.0003 6.99935C14.4482 6.99954 14.0005 6.55213 14.0003 6.00003C14.0001 5.44751 14.4481 4.99961 15.0006 5L16.001 5.00071C17.8576 5.00071 19.6382 5.73824 20.951 7.05107C22.2639 8.36389 23.0014 10.1445 23.0014 12.0011C23.0014 13.8577 22.2639 15.6382 20.951 16.9511C19.6382 18.2639 17.8576 19.0014 16.001 19.0014L14.9999 19.0007ZM9.99981 17.9993C10.0002 18.5518 9.55231 18.9999 8.99979 18.9997L8.00012 18.9993C6.14351 18.9993 4.36294 18.2618 3.05012 16.9489C1.73729 15.6361 0.999758 13.8556 0.999759 11.9989C0.999759 10.1423 1.73729 8.36177 3.05012 7.04894C4.36294 5.73612 6.14351 4.99859 8.00012 4.99859L9.00017 4.99894C9.55259 4.99914 10.0002 5.44796 9.99981 6.00038C9.99942 6.55239 9.55182 7.00041 8.99981 7.00041L7.99941 7.00041C7.34096 6.99752 6.68843 7.12472 6.07928 7.3747C5.47012 7.62468 4.91634 7.99252 4.44973 8.45709C3.98311 8.92167 3.61286 9.47383 3.36021 10.0819C3.10757 10.6899 2.97751 11.3419 2.97751 12.0004C2.97751 12.6588 3.10757 13.3108 3.36021 13.9188C3.61286 14.5269 3.98311 15.0791 4.44973 15.5436C4.91634 16.0082 5.47012 16.376 6.07928 16.626C6.68843 16.876 7.34096 17.0032 7.99941 17.0003L9.00014 17.0003C9.55197 17.0003 9.99942 17.4474 9.99981 17.9993ZM16.0002 10.9991C16.5525 10.9991 17.0002 11.4473 17.0002 11.9996C17.0002 12.5519 16.5524 13.0002 16.0001 13.0001L8.00055 12.9996C7.44843 12.9995 7.00082 12.5518 7.00062 11.9997C7.00043 11.4473 7.4482 10.9991 8.00062 10.9991L16.0002 10.9991Z" fill="#292929"/>
</g>
<defs>
<clipPath id="clip0_501_2042">
<rect width="24" height="24" fill="white"/>
</clipPath>
</defs>
</svg>
