<svg width="28" height="28" viewBox="0 0 28 28" fill="none" xmlns="http://www.w3.org/2000/svg">
<rect width="28" height="28" rx="5" fill="#EBEBEB"/>
<path d="M17.1067 12.0717L15.9283 10.8933L8.16667 18.655V19.8333H9.345L17.1067 12.0717ZM18.285 10.8933L19.4633 9.71501L18.285 8.53667L17.1067 9.71501L18.285 10.8933ZM10.035 21.5H6.5V17.9642L17.6958 6.76834C17.8521 6.61212 18.064 6.52435 18.285 6.52435C18.506 6.52435 18.7179 6.61212 18.8742 6.76834L21.2317 9.12584C21.3879 9.28211 21.4757 9.49404 21.4757 9.71501C21.4757 9.93598 21.3879 10.1479 21.2317 10.3042L10.0358 21.5H10.035Z" fill="#ADADAD"/>
</svg>
