<svg width="24" height="24" viewBox="0 0 24 24" fill="none" xmlns="http://www.w3.org/2000/svg">
<path d="M6.414 16L16.556 5.85801L15.142 4.44401L5 14.586V16H6.414ZM7.243 18H4C3.44772 18 3 17.5523 3 17V13.757L14.435 2.32201C14.6225 2.13454 14.8768 2.02922 15.142 2.02922C15.4072 2.02922 15.6615 2.13454 15.849 2.32201L18.678 5.15101C18.8655 5.33853 18.9708 5.59284 18.9708 5.85801C18.9708 6.12317 18.8655 6.37748 18.678 6.56501L7.243 18ZM3 21C3 20.4477 3.44772 20 4 20H20C20.5523 20 21 20.4477 21 21C21 21.5523 20.5523 22 20 22H4C3.44772 22 3 21.5523 3 21Z" fill="currentColor"/>
</svg>
