<svg width="30" height="30" viewBox="0 0 30 30" fill="none" xmlns="http://www.w3.org/2000/svg">
<circle cx="15" cy="15" r="15" fill="#D9D9D9"/>
<g clip-path="url(#clip0_265_1100)">
<path d="M10.0298 22.665C9.4775 22.665 9.02136 22.2143 9.11209 21.6695C9.31826 20.4315 9.90565 19.279 10.8047 18.3799C11.9412 17.2435 13.4826 16.605 15.0898 16.605C16.697 16.605 18.2384 17.2435 19.3749 18.3799C20.2739 19.279 20.8613 20.4315 21.0675 21.6695C21.1582 22.2143 20.7021 22.665 20.1498 22.665H10.0298ZM15.0898 15.8475C12.5787 15.8475 10.5448 13.8136 10.5448 11.3025C10.5448 8.79139 12.5787 6.75751 15.0898 6.75751C17.6009 6.75751 19.6348 8.79139 19.6348 11.3025C19.6348 13.8136 17.6009 15.8475 15.0898 15.8475Z" fill="#ABABAB"/>
</g>
<defs>
<clipPath id="clip0_265_1100">
<rect width="18.18" height="18.18" fill="white" transform="translate(6 6)"/>
</clipPath>
</defs>
</svg>
