<svg width="24" height="18" viewBox="0 0 24 18" fill="none" xmlns="http://www.w3.org/2000/svg">
<path d="M23.2929 8.29289C23.6834 8.68342 23.6834 9.31658 23.2929 9.70711L19.05 13.95C18.6595 14.3405 18.0265 14.3405 17.636 13.95C17.2455 13.5595 17.2455 12.9265 17.636 12.536L21.172 9L17.636 5.464C17.2455 5.07353 17.2455 4.44047 17.636 4.05C18.0265 3.65953 18.6595 3.65953 19.05 4.05L23.2929 8.29289ZM2.828 9L6.364 12.536C6.75446 12.9265 6.75447 13.5595 6.364 13.95C5.97353 14.3405 5.34047 14.3405 4.95 13.95L0.707107 9.70711C0.316583 9.31658 0.316583 8.68342 0.707107 8.29289L4.94996 4.05004C5.34041 3.65959 5.97348 3.65971 6.36379 4.05029C6.75387 4.44065 6.7538 5.07328 6.36362 5.46354L2.828 9ZM10.0275 17.3422C9.88369 17.7371 9.50825 18 9.08794 18C8.39396 18 7.91105 17.3103 8.14842 16.6582L13.9725 0.657838C14.1163 0.262875 14.4917 0 14.9121 0C15.606 0 16.089 0.689688 15.8516 1.34181L10.0275 17.3422Z" fill="black"/>
</svg>
