<svg width="22" height="16" viewBox="0 0 22 16" fill="none" xmlns="http://www.w3.org/2000/svg">
<path d="M10.246 11H3.75401L2.00544 15.3714C1.85358 15.7511 1.48589 16 1.07699 16C0.369551 16 -0.114192 15.2855 0.148546 14.6287L5.74856 0.628609C5.90043 0.24895 6.26813 0 6.67704 0H7.32297C7.73188 0 8.09959 0.248951 8.25145 0.628609L13.8515 14.6287C14.1142 15.2855 13.6305 16 12.923 16C12.5141 16 12.1464 15.7511 11.9946 15.3714L10.246 11ZM9.44601 9L7.00001 2.885L4.55401 9H9.44601ZM20 8.535C20 8.23953 20.2395 8 20.535 8H21C21.5523 8 22 8.44771 22 9V15C22 15.5523 21.5523 16 21 16H20.535C20.2395 16 20 15.7605 20 15.465C19.3919 15.8157 18.7022 16.0002 18.0002 16C17.2982 15.9998 16.6087 15.8148 16.0008 15.4637C15.3929 15.1125 14.8882 14.6076 14.5372 13.9996C14.1863 13.3916 14.0016 12.702 14.0016 12C14.0016 11.298 14.1863 10.6084 14.5372 10.0004C14.8882 9.3924 15.3929 8.88748 16.0008 8.53635C16.6087 8.18521 17.2982 8.00024 18.0002 8C18.7022 7.99976 19.3919 8.18428 20 8.535ZM18 14C18.5304 14 19.0391 13.7893 19.4142 13.4142C19.7893 13.0391 20 12.5304 20 12C20 11.4696 19.7893 10.9609 19.4142 10.5858C19.0391 10.2107 18.5304 10 18 10C17.4696 10 16.9609 10.2107 16.5858 10.5858C16.2107 10.9609 16 11.4696 16 12C16 12.5304 16.2107 13.0391 16.5858 13.4142C16.9609 13.7893 17.4696 14 18 14Z" fill="black"/>
</svg>
