<svg width="18" height="18" viewBox="0 0 18 18" fill="none" xmlns="http://www.w3.org/2000/svg">
<path d="M5 2C5 1.44772 5.44772 1 6 1H17C17.5523 1 18 1.44772 18 2C18 2.55228 17.5523 3 17 3H6C5.44772 3 5 2.55228 5 2ZM1 0C1.55228 0 2 0.447715 2 1V3H2.5C2.77614 3 3 3.22386 3 3.5C3 3.77614 2.77614 4 2.5 4H0.5C0.223858 4 0 3.77614 0 3.5C0 3.22386 0.223858 3 0.5 3H1V1H0.5C0.223858 1 0 0.776142 0 0.5C0 0.223858 0.223858 0 0.5 0H1ZM1 11C0.447715 11 0 10.5523 0 10V9.5C0 8.94771 0.447715 8.5 1 8.5H2V8H0.5C0.223858 8 0 7.77614 0 7.5C0 7.22386 0.223858 7 0.5 7H2C2.55228 7 3 7.44772 3 8V8.5C3 9.05229 2.55228 9.5 2 9.5H1V10H2.5C2.77614 10 3 10.2239 3 10.5C3 10.7761 2.77614 11 2.5 11H1ZM2 16.5H0.5C0.223858 16.5 0 16.2761 0 16C0 15.7239 0.223858 15.5 0.5 15.5H2V15H0.5C0.223858 15 0 14.7761 0 14.5C0 14.2239 0.223858 14 0.5 14H2C2.55228 14 3 14.4477 3 15V17C3 17.5523 2.55228 18 2 18H0.5C0.223858 18 0 17.7761 0 17.5C0 17.2239 0.223858 17 0.5 17H2V16.5ZM5 9C5 8.44771 5.44772 8 6 8H17C17.5523 8 18 8.44771 18 9C18 9.55229 17.5523 10 17 10H6C5.44772 10 5 9.55229 5 9ZM5 16C5 15.4477 5.44772 15 6 15H17C17.5523 15 18 15.4477 18 16C18 16.5523 17.5523 17 17 17H6C5.44772 17 5 16.5523 5 16Z" fill="black"/>
</svg>
