<svg width="23" height="16" viewBox="0 0 23 16" fill="none" xmlns="http://www.w3.org/2000/svg">
<path d="M13.9999 15.0007C13.4476 15.0003 13.0002 14.5514 13.0006 13.9991C13.001 13.4471 13.4486 12.9989 14.0006 12.9989H15.001C15.6594 13.0018 16.3119 12.8746 16.9211 12.6246C17.5303 12.3746 18.084 12.0068 18.5506 11.5422C19.0173 11.0776 19.3875 10.5255 19.6402 9.91742C19.8928 9.30936 20.0229 8.6574 20.0229 7.99894C20.0229 7.34049 19.8928 6.68852 19.6402 6.08047C19.3875 5.47242 19.0173 4.92025 18.5506 4.45568C18.084 3.9911 17.5303 3.62327 16.9211 3.37329C16.3119 3.12331 15.6594 2.99611 15.001 2.99899L14.0002 2.99935C13.4481 2.99954 13.0004 2.55213 13.0002 2.00003C13 1.44751 13.4481 0.999611 14.0006 1L15.001 1.00071C16.8576 1.00071 18.6381 1.73824 19.951 3.05107C21.2638 4.36389 22.0013 6.14446 22.0013 8.00107C22.0013 9.85768 21.2638 11.6382 19.951 12.9511C18.6381 14.2639 16.8576 15.0014 15.001 15.0014L13.9999 15.0007ZM8.99975 13.9993C9.00014 14.5518 8.55224 14.9999 7.99973 14.9997L7.00005 14.9993C5.14344 14.9993 3.36288 14.2618 2.05005 12.9489C0.737233 11.6361 -0.000302887 9.85556 -0.000302381 7.99894C-0.000301875 6.14233 0.737233 4.36177 2.05006 3.04894C3.36288 1.73612 5.14344 0.998588 7.00005 0.998587L8.00011 0.998941C8.55253 0.999136 9.00014 1.44796 8.99975 2.00038C8.99936 2.55239 8.55176 3.00041 7.99975 3.00041L6.99935 3.00041C6.3409 2.99752 5.68837 3.12472 5.07922 3.3747C4.47006 3.62468 3.91628 3.99252 3.44967 4.45709C2.98305 4.92167 2.61279 5.47383 2.36015 6.08188C2.10751 6.68994 1.97745 7.34191 1.97745 8.00036C1.97745 8.65881 2.1075 9.31078 2.36015 9.91883C2.61279 10.5269 2.98305 11.0791 3.44967 11.5436C3.91628 12.0082 4.47006 12.376 5.07922 12.626C5.68837 12.876 6.3409 13.0032 6.99935 13.0003L8.00008 13.0003C8.55191 13.0003 8.99936 13.4474 8.99975 13.9993ZM15.0001 6.9991C15.5524 6.99909 16.0001 7.44733 16.0001 7.99962C16.0001 8.55193 15.5524 9.00018 15 9.00014L7.00049 8.99957C6.44837 8.99953 6.00075 8.55181 6.00056 7.99969C6.00036 7.44726 6.44814 6.9991 7.00056 6.99909L15.0001 6.9991Z" fill="black"/>
</svg>
